name Walk01_grf.mot																		
datacolumns 19																		
datarows 33																		
range 1.158 1.19																		
endheader																		
time	1_ground_force_vx	1_ground_force_vy	1_ground_force_vz	1_ground_force_px	1_ground_force_py	1_ground_force_pz	1_ground_torque_x	1_ground_torque_y	1_ground_torque_z	2_ground_force_vx	2_ground_force_vy	2_ground_force_vz	2_ground_force_px	2_ground_force_py	2_ground_force_pz	2_ground_torque_x	2_ground_torque_y	2_ground_torque_z
1.158	0	0	0	0.336973	0	0.270224	0	0	0	3.666424	633.712585	12.436762	0.964931	0	0.174731	-0.005866	-1.013815	-0.019896
1.159	0	0	0	0.336973	0	0.270224	0	0	0	4.276775	633.40741	12.513058	0.965111	0	0.174811	-0.008398	-1.243834	-0.024572
1.16	0	0	0	0.336973	0	0.270224	0	0	0	4.810833	634.170349	12.513059	0.965403	0	0.174839	-0.009828	-1.29552	-0.025562
1.161	0	0	0	0.336973	0	0.270224	0	0	0	5.573772	634.475525	12.589356	0.965375	0	0.174945	-0.011182	-1.27282	-0.025255
1.162	0	0	0	0.336973	0	0.270224	0	0	0	6.031536	635.238464	12.436769	0.965522	0	0.175117	-0.012705	-1.338124	-0.026198
1.163	0	0	0	0.336973	0	0.270224	0	0	0	6.565593	635.54364	12.741946	0.965635	0	0.174937	-0.012529	-1.212802	-0.024315
1.164	0	0	0	0.336973	0	0.270224	0	0	0	7.099652	636.30658	12.436772	0.965568	0	0.175156	-0.014886	-1.334141	-0.026076
1.165	0	0	0	0.336973	0	0.270224	0	0	0	7.633708	636.153992	12.818243	0.965726	0	0.17534	-0.015575	-1.297916	-0.026152
1.166	0	0	0	0.336973	0	0.270224	0	0	0	8.472942	636.916931	12.741951	0.965801	0	0.175414	-0.01796	-1.350037	-0.027008
1.167	0	0	0	0.336973	0	0.270224	0	0	0	8.930705	636.916931	13.047128	0.966017	0	0.175317	-0.01879	-1.340037	-0.02745
1.168	0	0	0	0.336973	0	0.270224	0	0	0	9.541057	636.30658	12.818248	0.966289	0	0.175483	-0.020041	-1.336584	-0.026925
1.169	0	0	0	0.336973	0	0.270224	0	0	0	10.075114	637.374695	13.047132	0.966188	0	0.175476	-0.020364	-1.288266	-0.026371
1.17	0	0	0	0.336973	0	0.270224	0	0	0	10.838052	637.222107	13.352309	0.966424	0	0.175607	-0.024371	-1.43288	-0.030024
1.171	0	0	0	0.336973	0	0.270224	0	0	0	11.448404	637.832458	13.199723	0.96644	0	0.175579	-0.026837	-1.495184	-0.030942
1.172	0	0	0	0.336973	0	0.270224	0	0	0	12.058755	637.985046	13.352313	0.966281	0	0.175776	-0.027028	-1.429934	-0.029927
1.173	0	0	0	0.336973	0	0.270224	0	0	0	12.669107	638.290222	13.199727	0.966324	0	0.176024	-0.028773	-1.449649	-0.029978
1.174	0	0	0	0.336973	0	0.270224	0	0	0	13.126872	638.747986	12.894552	0.966496	0	0.175895	-0.030328	-1.475758	-0.029791
1.175	0	0	0	0.336973	0	0.270224	0	0	0	13.660929	638.900574	13.123435	0.966701	0	0.175992	-0.033406	-1.562344	-0.032092
1.176	0	0	0	0.336973	0	0.270224	0	0	0	14.118692	639.968689	13.276024	0.96689	0	0.17598	-0.035985	-1.631121	-0.033837
1.177	0	0	0	0.336973	0	0.270224	0	0	0	14.729044	639.968689	13.123438	0.967102	0	0.176076	-0.035802	-1.555567	-0.031899
1.178	0	0	0	0.336973	0	0.270224	0	0	0	15.186808	640.426453	13.12344	0.967063	0	0.176133	-0.04046	-1.706206	-0.034963
1.179	0	0	0	0.336973	0	0.270224	0	0	0	15.873452	640.273865	13.428617	0.966793	0	0.176219	-0.042698	-1.722256	-0.036121
1.18	0	0	0	0.336973	0	0.270224	0	0	0	17.017861	641.189392	13.657502	0.967063	0	0.17649	-0.043435	-1.636504	-0.034858
1.181	0	0	0	0.336973	0	0.270224	0	0	0	17.323037	641.189392	13.504915	0.967137	0	0.176342	-0.046645	-1.726491	-0.036364
1.182	0	0	0	0.336973	0	0.270224	0	0	0	18.009682	641.34198	13.810093	0.967264	0	0.176444	-0.046227	-1.646191	-0.035448
1.183	0	0	0	0.336973	0	0.270224	0	0	0	18.314859	641.647156	13.504918	0.967592	0	0.176548	-0.047889	-1.677754	-0.035312
1.184	0	0	0	0.336973	0	0.270224	0	0	0	19.001504	642.104919	13.428626	0.967479	0	0.176559	-0.051392	-1.736668	-0.03632
1.185	0	0	0	0.336973	0	0.270224	0	0	0	19.230386	643.020447	13.581214	0.967609	0	0.176684	-0.053574	-1.791378	-0.037836
1.186	0	0	0	0.336973	0	0.270224	0	0	0	19.688149	643.325623	13.581216	0.967437	0	0.176741	-0.054602	-1.784151	-0.037665
1.187	0	0	0	0.336973	0	0.270224	0	0	0	20.374794	643.630798	13.810099	0.967552	0	0.176844	-0.056277	-1.777761	-0.038145
1.188	0	0	0	0.336973	0	0.270224	0	0	0	20.832559	643.783386	13.581219	0.967682	0	0.176937	-0.060602	-1.872756	-0.039508
1.189	0	0	0	0.336973	0	0.270224	0	0	0	21.595498	644.393738	13.733809	0.967555	0	0.177048	-0.064301	-1.918695	-0.040893
1.19	0	0	0	0.336973	0	0.270224	0	0	0	22.053262	644.698914	13.581222	0.967809	0	0.177011	-0.064661	-1.890279	-0.039821
